#!OML:ASF C:\ViconDB\ViconDB\414\Spring2016\041811\Spring2016.ASF
:FULLY-SPECIFIED
:DEGREES
278
root 9.63013 18.1842 -29.1442 -181.12 1.91753 -176.455
lowerback 1.1823 2.76795 3.34348
upperback 2.67267 3.78588 1.11687
thorax 2.22213 1.99595 -0.685038
lowerneck -9.54766 -5.22722 -13.2863
upperneck 15.0963 -8.40276 15.7378
head 7.40704 -3.85715 6.5852
rclavicle -8.08743e-014 -3.32964e-015
rhumerus -26.4362 -2.42705 -84.7545
rradius 41.17
rwrist 31.5509
rhand -30.7723 -12.4293
rfingers 7.12502
rthumb -4.06325 -42.3703
lclavicle -8.08743e-014 -3.32964e-015
lhumerus -45.6932 6.98985 82.8845
lradius 23.5746
lwrist -35.6548
lhand -28.8717 17.8709
lfingers 7.12502
lthumb -2.22784 47.839
rfemur 20.8423 -12.7237 24.0561
rtibia 6.04305e-014
rfoot -160.454 7.01308
rtoes -13.0978
lfemur -30.6924 0.925256 -10.2048
ltibia 31.5946
lfoot -14.8293 7.90817
ltoes -6.23676
279
root 9.61095 18.1899 -29.356 -181.006 1.99267 -176.285
lowerback 0.98512 2.85697 3.54487
upperback 2.64533 3.89366 1.11858
thorax 2.32266 2.0537 -0.782509
lowerneck -9.72632 -5.37384 -12.8225
upperneck 15.2695 -8.50482 14.9373
head 7.45586 -3.91544 6.21327
rclavicle 1.99375e-014 7.45443e-017
rhumerus -26.2175 -2.37459 -84.6438
rradius 41.5158
rwrist 31.201
rhand -31.0602 -12.822
rfingers 7.12502
rthumb -4.34127 -42.7575
lclavicle 1.99375e-014 7.45443e-017
lhumerus -46.0633 6.87331 82.9962
lradius 23.9579
lwrist -35.2474
lhand -29.1971 17.9791
lfingers 7.12502
lthumb -2.54208 47.9437
rfemur 21.4433 -12.6017 24.0452
rtibia -3.81667e-014
rfoot -160.444 7.06457
rtoes -12.6363
lfemur -30.8297 -1.41183 -9.44686
ltibia 29.9045
lfoot -15.4129 8.8034
ltoes -6.28227
280
root 9.59294 18.1917 -29.5721 -181.001 2.11712 -176.226
lowerback 0.900621 3.00184 3.60906
upperback 2.62126 4.08141 1.11042
thorax 2.35843 2.14805 -0.818669
lowerneck -9.60174 -5.45568 -12.9043
upperneck 15.1264 -8.59842 14.9592
head 7.40668 -3.9665 6.22362
rclavicle -2.28463e-014 -3.85145e-015
rhumerus -26.1422 -2.43756 -84.4615
rradius 41.8152
rwrist 30.874
rhand -31.4542 -12.8589
rfingers 7.12502
rthumb -4.72167 -42.7863
lclavicle -2.28463e-014 -3.85145e-015
lhumerus -46.374 6.52049 83.3083
lradius 24.3132
lwrist -34.4882
lhand -29.6374 18.1334
lfingers 7.12502
lthumb -2.96724 48.0925
rfemur 22.1918 -12.4271 23.8802
rtibia -9.54166e-015
rfoot -160.483 7.18025
rtoes -12.6674
lfemur -30.8741 -3.69917 -8.78513
ltibia 28.582
lfoot -16.0652 9.94491
ltoes -5.97881
281
root 9.57003 18.1945 -29.7901 -180.959 2.29139 -176.117
lowerback 0.756934 3.12568 3.8191
upperback 2.60555 4.23703 1.04297
thorax 2.45072 2.23049 -0.991799
lowerneck -9.66933 -5.55521 -12.7997
upperneck 15.1648 -8.72084 14.8175
head 7.43922 -4.02396 6.14114
rclavicle 3.46835e-014 -6.50554e-015
rhumerus -26.0449 -2.54376 -84.3803
rradius 42.104
rwrist 30.5298
rhand -31.6765 -13.0757
rfingers 7.12502
rthumb -4.93633 -42.9982
lclavicle 3.46835e-014 -6.50554e-015
lhumerus -46.648 6.60828 83.1844
lradius 24.5801
lwrist -34.3715
lhand -30.2861 18.298
lfingers 7.12502
lthumb -3.59371 48.2475
rfemur 22.8797 -12.1914 23.749
rtibia -1.27222e-014
rfoot -160.304 7.14495
rtoes -12.0057
lfemur -31.01 -6.21481 -7.98985
ltibia 27.5932
lfoot -16.9624 11.5151
ltoes -5.67854
282
root 9.5494 18.1896 -30.0063 -180.946 2.57569 -176.073
lowerback 0.686018 3.28009 3.7426
upperback 2.57263 4.43815 1.07049
thorax 2.45794 2.32751 -0.913685
lowerneck -9.54757 -5.5783 -12.6819
upperneck 15.066 -8.71202 14.5691
head 7.36755 -4.03125 6.03662
rclavicle 7.02036e-015 -2.71341e-014
rhumerus -26.0232 -2.86479 -84.1713
rradius 42.3411
rwrist 30.3488
rhand -32.1148 -12.9572
rfingers 7.12502
rthumb -5.35955 -42.8694
lclavicle 7.02036e-015 -2.71341e-014
lhumerus -46.9592 6.82913 83.1585
lradius 24.8318
lwrist -34.4041
lhand -30.9544 18.5172
lfingers 7.12502
lthumb -4.23907 48.4548
rfemur 23.6431 -11.8297 23.5062
rtibia -5.40694e-014
rfoot -160.357 7.19146
rtoes -11.0802
lfemur -31.0862 -8.1987 -7.38372
ltibia 26.8798
lfoot -18.0552 12.7864
ltoes -5.53619
283
root 9.52317 18.1819 -30.2218 -180.865 2.79908 -175.999
lowerback 0.545358 3.41307 3.71335
upperback 2.52274 4.60652 1.10847
thorax 2.48766 2.40876 -0.847376
lowerneck -9.42407 -5.57808 -12.8102
upperneck 15.0128 -8.72227 14.6812
head 7.3405 -4.04205 6.09779
rclavicle 2.08491e-015 7.47927e-015
rhumerus -26.0144 -3.27791 -83.9208
rradius 42.477
rwrist 30.456
rhand -32.4967 -13.0148
rfingers 7.12502
rthumb -5.72834 -42.9174
lclavicle 2.08491e-015 7.47927e-015
lhumerus -47.2049 6.91224 83.304
lradius 25.1366
lwrist -34.0977
lhand -31.4471 18.854
lfingers 7.12502
lthumb -4.71491 48.7816
rfemur 24.2829 -11.5354 23.3481
rtibia 2.8625e-014
rfoot -159.937 7.03858
rtoes -10.584
lfemur -31.2063 -9.84351 -6.94025
ltibia 26.4025
lfoot -19.1195 14.0601
ltoes -5.717
284
root 9.49785 18.1725 -30.4416 -180.814 3.14883 -175.955
lowerback 0.421638 3.54706 3.58807
upperback 2.474 4.77748 1.14526
thorax 2.50074 2.48894 -0.730122
lowerneck -9.49167 -5.59051 -12.8024
upperneck 15.1764 -8.75127 14.6301
head 7.40665 -4.05756 6.07672
rclavicle -4.6601e-014 5.61567e-015
rhumerus -26.0494 -3.69739 -83.7177
rradius 42.4962
rwrist 30.8703
rhand -32.7353 -13.1368
rfingers 7.12502
rthumb -5.95863 -43.033
lclavicle -4.6601e-014 5.61567e-015
lhumerus -47.4442 6.94341 83.5619
lradius 25.4042
lwrist -33.2859
lhand -32.5094 19.4398
lfingers 7.12502
lthumb -5.74059 49.342
rfemur 25.0008 -11.0966 23.1068
rtibia 6.99722e-014
rfoot -159.64 6.88739
rtoes -10.0628
lfemur -31.089 -10.5233 -6.86867
ltibia 26.0844
lfoot -19.8125 14.7248
ltoes -5.84639
285
root 9.46818 18.1635 -30.6681 -180.842 3.44385 -175.962
lowerback 0.269246 3.63213 3.34693
upperback 2.47849 4.88413 1.21849
thorax 2.56818 2.53647 -0.508904
lowerneck -9.44716 -5.14472 -12.2652
upperneck 15.0331 -8.08015 14.1465
head 7.20816 -3.73495 5.89429
rclavicle 6.2399e-014 1.25545e-014
rhumerus -26.0722 -3.77249 -83.519
rradius 42.5634
rwrist 30.6706
rhand -32.8936 -13.3679
rfingers 7.12502
rthumb -6.11146 -43.2597
lclavicle 6.2399e-014 1.25545e-014
lhumerus -47.6518 7.4349 83.508
lradius 25.563
lwrist -33.4352
lhand -33.0339 19.5236
lfingers 7.12502
lthumb -6.24692 49.4115
rfemur 25.8047 -10.7078 22.7888
rtibia -3.49861e-014
rfoot -159.22 6.69317
rtoes -9.90052
lfemur -30.788 -10.6812 -7.13684
ltibia 25.9044
lfoot -20.0811 15.0291
ltoes -5.94532
286
root 9.44472 18.1498 -30.8972 -180.843 3.69687 -175.901
lowerback 0.127527 3.72518 3.15795
upperback 2.42074 5.00094 1.27711
thorax 2.57055 2.58784 -0.334504
lowerneck -9.34916 -4.64958 -11.6414
upperneck 14.9819 -7.38735 13.6621
head 7.03116 -3.40287 5.69898
rclavicle 8.28986e-014 4.02539e-015
rhumerus -26.2377 -4.4225 -83.32
rradius 42.5278
rwrist 30.797
rhand -32.9921 -13.3368
rfingers 7.12502
rthumb -6.20661 -43.2259
lclavicle 8.28986e-014 4.02539e-015
lhumerus -47.8673 7.78932 83.486
lradius 25.77
lwrist -33.2948
lhand -33.2823 19.831
lfingers 7.12502
lthumb -6.48679 49.7116
rfemur 26.5821 -10.3649 22.5712
rtibia -5.725e-014
rfoot -158.786 6.34743
rtoes -10.0251
lfemur -30.3658 -9.66294 -7.71984
ltibia 25.8021
lfoot -19.5832 14.2569
ltoes -5.93234
287
root 9.41455 18.1283 -31.1308 -180.882 3.9395 -175.729
lowerback 0.0120732 3.83521 3.24983
upperback 2.38319 5.14011 1.26632
thorax 2.61042 2.6581 -0.384797
lowerneck -9.364 -4.68925 -11.5899
upperneck 15.1493 -7.51463 13.7836
head 7.10709 -3.4591 5.71977
rclavicle 8.21944e-014 7.90169e-015
rhumerus -26.4406 -5.14036 -83.1983
rradius 42.4755
rwrist 31.0247
rhand -33.0595 -13.3525
rfingers 7.12502
rthumb -6.27167 -43.2397
lclavicle 8.21944e-014 7.90169e-015
lhumerus -48.007 7.96635 83.3902
lradius 25.9392
lwrist -33.3382
lhand -33.8179 20.3058
lfingers 7.12502
lthumb -7.00381 50.17
rfemur 27.4366 -10.0247 22.4384
rtibia -7.63333e-014
rfoot -158.183 5.96033
rtoes -9.1037
lfemur -29.7665 -8.25322 -8.37332
ltibia 25.8473
lfoot -18.7105 13.1577
ltoes -5.96822
288
root 9.38801 18.1119 -31.368 -180.912 4.1493 -175.787
lowerback -0.166559 3.92174 2.97134
upperback 2.32331 5.2468 1.24943
thorax 2.62858 2.70218 -0.235347
lowerneck -9.33835 -4.99316 -12.2286
upperneck 15.331 -8.0911 14.6927
head 7.30489 -3.72681 6.08099
rclavicle -9.97961e-015 1.24737e-014
rhumerus -26.675 -5.97963 -83.0361
rradius 42.2824
rwrist 31.4595
rhand -33.3044 -13.2904
rfingers 7.12502
rthumb -6.50808 -43.1704
lclavicle -9.97961e-015 1.24737e-014
lhumerus -48.1297 8.07868 83.4459
lradius 26.0941
lwrist -33.0189
lhand -34.0777 20.3666
lfingers 7.12502
lthumb -7.25456 50.2222
rfemur 28.2738 -9.69997 22.0601
rtibia 6.36111e-015
rfoot -157.645 5.47549
rtoes -8.35532
lfemur -29.1267 -6.53142 -9.40166
ltibia 26.0237
lfoot -17.315 11.8724
ltoes -6.97051
289
root 9.35269 18.0906 -31.6069 -180.873 4.3333 -175.557
lowerback -0.365487 3.97513 3.04213
upperback 2.2177 5.30616 1.30188
thorax 2.63467 2.72989 -0.208459
lowerneck -9.30586 -5.06133 -12.3364
upperneck 15.574 -8.28797 14.9314
head 7.42032 -3.82314 6.1644
rclavicle -3.4017e-014 2.28602e-015
rhumerus -27.021 -6.8192 -82.8417
rradius 42.2151
rwrist 31.6377
rhand -33.2944 -13.2971
rfingers 7.12502
rthumb -6.49847 -43.1774
lclavicle -3.4017e-014 2.28602e-015
lhumerus -48.2368 7.99816 83.6843
lradius 26.2327
lwrist -32.1249
lhand -34.2903 20.5439
lfingers 7.12502
lthumb -7.45978 50.3924
rfemur 29.03 -9.39675 21.9702
rtibia 5.725e-014
rfoot -156.955 4.90523
rtoes -8.45128
lfemur -28.5114 -4.74479 -10.103
ltibia 26.3168
lfoot -15.7419 10.376
ltoes -7.07062
